PathFileType	4	(X/Y/Z)	Patient4_TMGait_0pt6_01_left_16.trc.trc
DataRate	CameraRate	NumFrames	NumMarkers	Units	OrigDataRate	OrigDataStartFrame	OrigNumFrames
83.333333333333	83.333333333333	4	33	mm	83.333333333333	1	       141
Frame#	Time	Sacral			L.Shoulder			Chest			R.Shoulder			Neck			R.ASIS			L.ASIS			R.Thigh.Superior			R.Thigh.Lateral			R.Thigh.Inferior			R.Patella			L.Thigh.Superior			L.Thigh.Lateral			L.Thigh.Inferior			L.Patella			L.Shank.Superior			L.Shank.Lateral			L.Shank.Inferior			R.Shank.Superior			R.Shank.Lateral			R.Shank.Inferior			R.Heel			R.Midfoot.Superior			R.Midfoot.Lateral			R.Toe			L.Heel			L.Midfoot.Lateral			L.Midfoot.Superior			L.Toe			L.Elbow			L.Wrist			R.Elbow			R.Wrist			
		X1	Y1	Z1	X2	Y2	Z2	X3	Y3	Z3	X4	Y4	Z4	X5	Y5	Z5	X6	Y6	Z6	X7	Y7	Z7	X8	Y8	Z8	X9	Y9	Z9	X10	Y10	Z10	X11	Y11	Z11	X12	Y12	Z12	X13	Y13	Z13	X14	Y14	Z14	X15	Y15	Z15	X16	Y16	Z16	X17	Y17	Z17	X18	Y18	Z18	X19	Y19	Z19	X20	Y20	Z20	X21	Y21	Z21	X22	Y22	Z22	X23	Y23	Z23	X24	Y24	Z24	X25	Y25	Z25	X26	Y26	Z26	X27	Y27	Z27	X28	Y28	Z28	X29	Y29	Z29	X30	Y30	Z30	X31	Y31	Z31	X32	Y32	Z32	X33	Y33	Z33	

1	19.490000000000	636.377571006421	1006.633176086147	510.209112164890	766.088585456097	1436.236123695361	307.467468907909	893.988863441785	1376.317539004082	453.648636430957	830.157243689861	1446.087656036331	636.698383233644	768.811674087230	1498.108884980293	460.805592953001	878.409696413654	946.159595418548	601.996029393194	833.327399572975	967.917024236471	331.277778576019	913.028899226660	741.198437447429	565.843569342469	832.287683556490	633.918152484272	630.229575501027	897.754961296175	580.836717696304	541.828009199704	894.122597569266	491.895428118598	544.972314315272	927.587061853344	788.155304475859	365.560312328205	888.212292621745	660.044212170815	290.942237692531	994.484745055656	600.908128081268	352.569729524350	1010.389402731282	509.874824598587	345.194180314561	942.983283516003	441.795600567009	338.883623804938	800.340692733473	399.839129097882	291.980813803211	788.877485464618	270.072834496649	346.565829582191	865.665741115257	403.307628527041	553.164829256048	797.652769490542	300.003095844601	617.393330241286	833.059242179247	205.985479090851	550.216956818555	693.930396757439	42.348880859935	524.987449850574	866.895555264639	96.515555316519	554.824584972975	779.213343432166	36.447345372179	597.420607179090	987.282789684190	42.989550592604	580.614619307114	599.480820167210	215.408338139977	389.716416470705	648.668958582895	160.034790916496	309.811376508312	755.301203658260	160.571182290102	325.549278644267	821.738890644620	38.954781980401	301.576843997719	734.392407831468	1075.831116421420	207.076415494831	807.648698023534	825.429340311462	199.595183106256	906.051405941571	1113.617046818311	772.295880853756	1147.452108348420	1033.943951992384	727.279662116545	
2	19.502000000000	634.879593921868	1007.711718600573	511.345880195015	765.817651748908	1436.359700178027	308.152802890674	894.176924387681	1376.056983282948	453.703207091679	831.752909930348	1446.602993844167	636.899745102353	769.432798766126	1498.335205035503	461.300862177671	876.878770716281	945.888324473870	602.417002884955	831.294135928660	968.503827054355	331.885707648899	909.230136311351	740.340890077056	565.982009500328	827.725207307655	633.838081974345	630.740816235205	892.338265951946	580.131262909606	542.209425232468	887.829916077280	491.488154653254	545.407843723529	926.886186623815	791.006715588698	366.946285884084	889.441899376969	662.439121984389	292.157980274448	995.541616489307	604.454953136628	354.464455294141	1013.079132000779	514.619704625322	347.068758292555	949.531013870964	444.734583043035	340.113860960069	810.493207701908	394.286796585777	293.275556591804	807.801111085276	264.449848836746	347.293481728382	859.230243330710	403.127693484264	553.620643700011	790.782754694860	299.909237662190	617.690622572186	825.849860131477	205.830579737405	550.375514060860	686.285544817413	42.276797770940	524.992261810609	859.219276423841	96.483998473049	554.889314722337	771.529967521936	36.440510476853	597.458786121096	979.612332456158	42.972174609965	580.683146682614	623.930187854213	196.041824589183	390.456399186154	676.453571748351	146.325452284450	309.766851549424	781.873722241700	154.802594347257	325.614308445737	856.781012550619	40.224065937912	299.820575183506	726.962254065289	1076.421616659655	210.165552594914	788.658626080673	824.014607505472	205.246553867389	915.260950503640	1116.357562444576	771.012514479408	1158.341108123933	1053.306013698586	721.781190799725	
3	19.514000000000	633.393478733931	1008.759752085719	512.442797873496	765.583341728472	1436.470665890916	308.820073874958	894.378148578074	1375.765098448948	453.754137211987	833.337584681324	1447.072596936407	637.090441842880	770.064549112830	1498.540156192876	461.790260183220	875.356344503503	945.605954796927	602.818789013573	829.301530677077	969.047968630316	332.456334048086	905.485552649994	739.489972230270	566.135560115243	823.219414347679	633.742659702577	631.245470832825	886.994371961934	579.421838215613	542.588580568740	881.625911763159	491.079219065766	545.838777613628	926.133085121954	793.693150783641	368.269698049157	890.430713351349	664.656231769852	293.347903984123	996.324501394482	607.741607517133	356.315045052338	1015.463655855711	519.166726479666	348.900123790940	955.799874152287	447.558784541445	341.333940738131	820.592608082054	388.637329012692	294.460930127932	826.640376468314	258.891073744869	348.003655752932	852.873520703066	402.933162685828	554.062267883865	784.003629917960	299.810945762090	617.982345528271	818.724385897450	205.670447812750	550.531531585658	678.723992584113	42.213576294451	524.999313334100	851.621718977949	96.447755850644	554.946864929976	763.933674640402	36.429911337891	597.489596793543	972.025488750390	42.946124324762	580.749993986731	648.531071296139	176.867320306405	391.068828641469	704.340740753681	132.813027484834	309.687825345390	808.390050585692	149.179807509007	325.723871137659	891.626549172574	41.745981278064	298.288340876029	719.604775831204	1077.039924948841	213.197415423338	770.029970236879	822.753437083596	210.826531599027	924.342390820741	1119.045251790707	769.690107118725	1168.864067736097	1072.409176460086	716.303385004646	
4	19.526000000000	631.941349775821	1009.740769009061	513.463927521383	765.419162088863	1436.553931922486	309.447587912966	894.604327253115	1375.409968711120	453.794888295104	834.895406163715	1447.449801748330	637.255795078504	770.715281566201	1498.700200638980	462.261367112821	873.854635311488	945.298058420824	603.177174748204	827.385744928446	969.503867211529	332.952490076458	901.825534137115	738.641829653466	566.316280621908	818.791663465406	633.617008548848	631.737027260070	881.753716135646	578.699277939565	542.967267427693	875.547274075892	490.662618980322	546.264917941878	925.242608581135	796.025385115148	369.464709603510	890.938975464168	666.518843688428	294.462515806730	996.558850337193	610.512483462504	358.072963096706	1017.234767684940	523.328978770544	350.653625453199	961.521521198121	450.173282508410	342.526207202680	830.605817902518	382.830109846423	295.449058058912	845.339311733096	253.517885305710	348.688082664233	846.621226407790	402.711817693522	554.480539298874	777.346107100227	299.705261829097	618.265326997556	811.706628166007	205.500905763726	550.684494494345	671.267260668349	42.166722084419	525.010598702558	844.125297066895	96.404978685789	554.996547717369	756.448502650653	36.413142913120	597.507553810295	964.545037066012	42.903752609444	580.814760909163	673.485687867799	158.152166170476	391.475789811332	732.473778878257	119.764654559802	309.576008413636	834.831184809849	143.917273139148	325.929713272919	926.104419047450	43.846197081931	297.193514712255	712.365918497078	1077.723610923972	216.125222543675	752.058402797730	821.793210166877	216.269816472520	933.200676984723	1121.641988112813	768.267099031440	1178.680653575648	1091.046807044225	710.836179192686	
